<?xml version="1.0" encoding="UTF-8"?>
<svg width="400" height="300" viewBox="0 0 400 300" fill="none" xmlns="http://www.w3.org/2000/svg">
  <!-- Background Elements -->
  <circle cx="200" cy="150" r="120" fill="#ffffff" fill-opacity="0.1"/>
  <circle cx="200" cy="150" r="80" fill="#ffffff" fill-opacity="0.15"/>
  
  <!-- Dashboard Elements -->
  <rect x="120" y="100" width="160" height="120" rx="8" fill="#ffffff" fill-opacity="0.25"/>
  
  <!-- Chart Elements -->
  <rect x="140" y="170" width="20" height="30" rx="3" fill="#ffffff" fill-opacity="0.8"/>
  <rect x="170" y="150" width="20" height="50" rx="3" fill="#ffffff" fill-opacity="0.8"/>
  <rect x="200" y="130" width="20" height="70" rx="3" fill="#ffffff" fill-opacity="0.8"/>
  <rect x="230" y="160" width="20" height="40" rx="3" fill="#ffffff" fill-opacity="0.8"/>
  
  <!-- Header Elements -->
  <rect x="140" y="120" width="120" height="10" rx="2" fill="#ffffff" fill-opacity="0.6"/>
  <rect x="140" y="140" width="70" height="6" rx="2" fill="#ffffff" fill-opacity="0.4"/>
  
  <!-- Decorative Elements -->
  <circle cx="50" cy="50" r="20" fill="#ffffff" fill-opacity="0.1"/>
  <circle cx="350" cy="80" r="25" fill="#ffffff" fill-opacity="0.1"/>
  <circle cx="70" cy="250" r="30" fill="#ffffff" fill-opacity="0.1"/>
  <circle cx="330" cy="230" r="35" fill="#ffffff" fill-opacity="0.1"/>
  
  <!-- Dots Grid -->
  <g fill="#ffffff" fill-opacity="0.2">
    <circle cx="50" cy="100" r="2"/>
    <circle cx="70" cy="100" r="2"/>
    <circle cx="90" cy="100" r="2"/>
    <circle cx="50" cy="120" r="2"/>
    <circle cx="70" cy="120" r="2"/>
    <circle cx="90" cy="120" r="2"/>
    <circle cx="50" cy="140" r="2"/>
    <circle cx="70" cy="140" r="2"/>
    <circle cx="90" cy="140" r="2"/>
    
    <circle cx="310" cy="140" r="2"/>
    <circle cx="330" cy="140" r="2"/>
    <circle cx="350" cy="140" r="2"/>
    <circle cx="310" cy="160" r="2"/>
    <circle cx="330" cy="160" r="2"/>
    <circle cx="350" cy="160" r="2"/>
    <circle cx="310" cy="180" r="2"/>
    <circle cx="330" cy="180" r="2"/>
    <circle cx="350" cy="180" r="2"/>
  </g>
</svg>
